# Blender 4.3.2
# www.blender.org
mtllib door1_lower.mtl
o door.002_Circle.002
v -36.727108 0.040418 -49.160458
v -36.712402 0.047660 -49.175137
v -36.652653 0.040440 -49.175121
v -36.712418 0.025729 -49.160458
v -34.191113 0.025904 -49.160458
v -34.191109 0.040631 -49.175091
v -36.712395 1.092482 -49.160435
v -36.712379 1.077801 -49.175125
v -36.727085 1.077792 -49.160458
v -34.191109 0.554295 -49.173206
v -34.191113 0.568948 -49.158459
v -35.437073 0.568852 -49.159443
v -35.448853 0.554187 -49.174141
v -35.466442 0.578724 -49.174126
v -35.451759 0.583542 -49.159428
v -35.466396 1.092482 -49.158470
v -35.451706 1.077792 -49.158478
v -35.466381 1.077801 -49.173191
v -36.727318 0.040147 -48.913773
v -36.712627 0.025456 -48.913773
v -36.652889 0.040125 -48.899055
v -36.712643 0.047353 -48.899071
v -34.191177 0.039934 -48.899025
v -34.191174 0.025281 -48.913773
v -36.712650 1.092332 -48.913750
v -36.727341 1.077642 -48.913773
v -36.712666 1.077633 -48.899059
v -34.191174 0.568326 -48.911774
v -34.191177 0.553598 -48.897141
v -35.437214 0.568421 -48.912758
v -35.451904 0.583112 -48.912739
v -35.466602 0.578245 -48.898060
v -35.449013 0.553706 -48.898075
v -35.466652 1.092332 -48.911785
v -35.466663 1.077633 -48.897125
v -35.451958 1.077642 -48.911793
v -31.625799 0.040418 -49.160458
v -31.640501 0.047660 -49.175137
v -31.700253 0.040440 -49.175121
v -31.640488 0.025729 -49.160458
v -34.176453 0.040595 -49.160400
v -34.161793 0.025904 -49.160458
v -34.161797 0.040631 -49.175091
v -31.640511 1.092482 -49.160439
v -31.640526 1.077801 -49.175125
v -31.625820 1.077792 -49.160458
v -34.176453 0.554259 -49.158504
v -34.161797 0.554295 -49.173206
v -34.161793 0.568948 -49.158459
v -32.915836 0.568852 -49.159443
v -32.904053 0.554187 -49.174141
v -32.886463 0.578724 -49.174126
v -32.901146 0.583542 -49.159428
v -32.886509 1.092482 -49.158474
v -32.901199 1.077792 -49.158478
v -32.886524 1.077801 -49.173191
v -31.625587 0.040147 -48.913773
v -31.640278 0.025456 -48.913773
v -31.700016 0.040125 -48.899055
v -31.640265 0.047353 -48.899075
v -34.176453 0.039970 -48.913715
v -34.161728 0.039934 -48.899025
v -34.161732 0.025281 -48.913773
v -31.640255 1.092332 -48.913754
v -31.625565 1.077642 -48.913773
v -31.640240 1.077633 -48.899063
v -34.176453 0.553634 -48.911819
v -34.161732 0.568326 -48.911774
v -34.161728 0.553598 -48.897141
v -32.915691 0.568421 -48.912758
v -32.901001 0.583112 -48.912739
v -32.886303 0.578245 -48.898060
v -32.903893 0.553706 -48.898075
v -32.886253 1.092332 -48.911785
v -32.886242 1.077633 -48.897125
v -32.900948 1.077642 -48.911793
vn -1.0000 -0.0000 -0.0009
vn -0.0000 -1.0000 -0.0018
vn -0.0007 -0.0008 1.0000
vn -0.0011 -0.0006 1.0000
vn -0.0008 -0.0007 1.0000
vn -0.0000 1.0000 0.0006
vn 1.0000 -0.0000 0.0008
vn -0.0000 1.0000 0.0021
vn -0.0003 -0.0025 1.0000
vn -0.0004 -0.0014 1.0000
vn -0.0003 -0.0020 1.0000
vn 0.0003 0.0021 -1.0000
vn 0.0004 0.0014 -1.0000
vn 0.0003 0.0025 -1.0000
vn -0.1614 -0.5488 -0.8202
vn 0.5785 -0.5750 -0.5786
vn -0.5766 0.5776 -0.5778
vn 0.5782 0.5788 -0.5750
vn 0.5150 0.4244 -0.7448
vn 0.5779 0.5781 -0.5761
vn -0.1622 -0.5501 0.8192
vn 0.5762 -0.5797 0.5761
vn -0.5781 0.5771 0.5769
vn 0.5765 0.5758 0.5797
vn 0.5144 0.4227 0.7461
vn 0.5768 0.5767 0.5786
vn 0.7081 0.0026 -0.7061
vn 0.0005 0.7086 -0.7057
vn 0.0011 0.7077 -0.7065
vn 0.7077 0.0013 -0.7065
vn -0.7063 -0.0000 -0.7079
vn 0.0001 -0.7054 -0.7088
vn 0.0008 0.0007 -1.0000
vn 0.0007 0.0008 -1.0000
vn 0.7061 -0.0026 0.7081
vn -0.0005 0.7057 0.7086
vn -0.0011 0.7065 0.7077
vn 0.7065 -0.0013 0.7077
vn -0.7079 -0.0000 0.7063
vn -0.0001 -0.7088 0.7054
vn -0.7071 -0.7071 -0.0014
vn 0.7071 -0.7071 -0.0017
vn -0.7071 0.7071 -0.0003
vn 0.7071 0.7071 0.0019
vn 0.7071 0.7071 0.0016
vn 0.7071 0.7071 0.0012
vn 0.0011 0.0006 -1.0000
vn 1.0000 -0.0000 -0.0009
vn 0.0007 -0.0008 1.0000
vn 0.0009 -0.0007 1.0000
vn 0.0011 -0.0006 1.0000
vn -1.0000 -0.0000 0.0008
vn 0.0003 -0.0025 1.0000
vn 0.0003 -0.0020 1.0000
vn 0.0004 -0.0014 1.0000
vn -1.0000 -0.0000 -0.0000
vn -0.0003 0.0020 -1.0000
vn -0.0003 0.0025 -1.0000
vn -0.0004 0.0014 -1.0000
vn 0.1614 -0.5489 -0.8202
vn -0.5785 -0.5750 -0.5786
vn 0.5767 0.5776 -0.5778
vn -0.5782 0.5788 -0.5750
vn -0.5150 0.4244 -0.7448
vn -0.5779 0.5780 -0.5761
vn 0.1622 -0.5501 0.8192
vn -0.5762 -0.5797 0.5761
vn 0.5780 0.5771 0.5769
vn -0.5765 0.5758 0.5797
vn -0.5144 0.4227 0.7461
vn -0.5768 0.5767 0.5786
vn -0.7081 0.0026 -0.7061
vn -0.0005 0.7085 -0.7057
vn -0.0011 0.7077 -0.7066
vn -0.7077 0.0013 -0.7065
vn 0.7064 -0.0000 -0.7079
vn -0.0001 -0.7054 -0.7088
vn -0.0006 0.0009 -1.0000
vn -0.0007 0.0008 -1.0000
vn -0.7061 -0.0026 0.7081
vn 0.0005 0.7057 0.7086
vn 0.0011 0.7065 0.7077
vn -0.7065 -0.0013 0.7077
vn 0.7078 -0.0000 0.7064
vn 0.0001 -0.7088 0.7055
vn 0.7071 -0.7071 -0.0014
vn -0.7071 -0.7071 -0.0017
vn 0.7071 0.7071 -0.0003
vn -0.7071 0.7071 0.0019
vn -0.7071 0.7071 0.0016
vn -0.7071 0.7071 0.0012
vn -0.0011 0.0006 -1.0000
s 1
usemtl door.002
f 9//1 1//1 19//1 26//1
f 4//2 5//2 24//2 20//2
f 32//3 35//4 27//4 22//5
f 16//6 7//6 25//6 34//6
f 15//7 17//7 36//7 31//7
f 11//8 12//8 30//8 28//8
f 23//9 29//9 33//10 21//11
f 3//12 13//13 10//14 6//14
f 1//15 2//15 3//15 4//15
f 41//16 5//16 6//16
f 7//17 8//17 9//17
f 47//18 10//18 11//18
f 12//19 13//19 14//19 15//19
f 16//20 17//20 18//20
f 19//21 20//21 21//21 22//21
f 61//22 23//22 24//22
f 25//23 26//23 27//23
f 67//24 28//24 29//24
f 30//25 31//25 32//25 33//25
f 34//26 35//26 36//26
f 6//27 10//27 47//27 41//27
f 12//28 11//28 10//28 13//28
f 7//29 16//29 18//29 8//29
f 17//30 15//30 14//30 18//30
f 1//31 9//31 8//31 2//31
f 5//32 4//32 3//32 6//32
f 2//33 14//34 13//13 3//12
f 61//35 67//35 29//35 23//35
f 33//36 29//36 28//36 30//36
f 27//37 35//37 34//37 25//37
f 35//38 32//38 31//38 36//38
f 22//39 27//39 26//39 19//39
f 23//40 21//40 20//40 24//40
f 21//11 33//10 32//3 22//5
f 4//41 20//41 19//41 1//41
f 41//42 61//42 24//42 5//42
f 9//43 26//43 25//43 7//43
f 11//44 28//44 67//44 47//44
f 15//45 31//45 30//45 12//45
f 16//46 34//46 36//46 17//46
f 2//33 8//47 18//47 14//34
f 46//48 65//48 57//48 37//48
f 40//2 58//2 63//2 42//2
f 72//49 60//50 66//51 75//51
f 54//6 74//6 64//6 44//6
f 53//52 71//52 76//52 55//52
f 49//8 68//8 70//8 50//8
f 62//53 59//54 73//55 69//53
f 41//56 61//56 67//56 47//56
f 39//57 43//58 48//58 51//59
f 37//60 40//60 39//60 38//60
f 41//61 43//61 42//61
f 44//62 46//62 45//62
f 47//63 49//63 48//63
f 50//64 53//64 52//64 51//64
f 54//65 56//65 55//65
f 57//66 60//66 59//66 58//66
f 61//67 63//67 62//67
f 64//68 66//68 65//68
f 67//69 69//69 68//69
f 70//70 73//70 72//70 71//70
f 74//71 76//71 75//71
f 43//72 41//72 47//72 48//72
f 50//73 51//73 48//73 49//73
f 44//74 45//74 56//74 54//74
f 55//75 56//75 52//75 53//75
f 37//76 38//76 45//76 46//76
f 42//77 43//77 39//77 40//77
f 38//78 39//57 51//59 52//79
f 61//80 62//80 69//80 67//80
f 73//81 70//81 68//81 69//81
f 66//82 64//82 74//82 75//82
f 75//83 76//83 71//83 72//83
f 60//84 57//84 65//84 66//84
f 62//85 63//85 58//85 59//85
f 59//54 60//50 72//49 73//55
f 40//86 37//86 57//86 58//86
f 41//87 42//87 63//87 61//87
f 46//88 44//88 64//88 65//88
f 49//89 47//89 67//89 68//89
f 53//90 50//90 70//90 71//90
f 54//91 55//91 76//91 74//91
f 38//78 52//79 56//92 45//92
